ISO-10303-21;
HEADER;
FILE_DESCRIPTION(('SW_Slide_SP3T_Angled_CK_OS103011MA7Q - simplified model, C&K OS datasheet dimensions'),'2;1');
FILE_NAME('SW_Slide_SP3T_Angled_CK_OS103011MA7Q.step','2026-10-01T00:00:00',('air-quality-pcb'),(''),'mkstep.py','',' ');
FILE_SCHEMA(('AUTOMOTIVE_DESIGN { 1 0 10303 214 1 1 1 1 }'));
ENDSEC;
DATA;
#1=APPLICATION_CONTEXT('core data for automotive mechanical design processes');
#2=APPLICATION_PROTOCOL_DEFINITION('international standard','automotive_design',2000,#1);
#3=PRODUCT_CONTEXT('',#1,'mechanical');
#4=PRODUCT('SW_Slide_SP3T_Angled_CK_OS103011MA7Q','SW_Slide_SP3T_Angled_CK_OS103011MA7Q','',(#3));
#5=PRODUCT_RELATED_PRODUCT_CATEGORY('part',$,(#4));
#6=PRODUCT_DEFINITION_FORMATION('','',#4);
#7=PRODUCT_DEFINITION_CONTEXT('part definition',#1,'design');
#8=PRODUCT_DEFINITION('design','',#6,#7);
#9=PRODUCT_DEFINITION_SHAPE('','',#8);
#10=(LENGTH_UNIT()NAMED_UNIT(*)SI_UNIT(.MILLI.,.METRE.));
#11=(NAMED_UNIT(*)PLANE_ANGLE_UNIT()SI_UNIT($,.RADIAN.));
#12=(NAMED_UNIT(*)SI_UNIT($,.STERADIAN.)SOLID_ANGLE_UNIT());
#13=UNCERTAINTY_MEASURE_WITH_UNIT(LENGTH_MEASURE(1.E-07),#10,'distance_accuracy_value','confusion accuracy');
#14=(GEOMETRIC_REPRESENTATION_CONTEXT(3)GLOBAL_UNCERTAINTY_ASSIGNED_CONTEXT((#13))GLOBAL_UNIT_ASSIGNED_CONTEXT((#10,#11,#12))REPRESENTATION_CONTEXT('Context #1','3D Context with UNIT and UNCERTAINTY'));
#15=CARTESIAN_POINT('',(0.0000,0.0000,0.0000));
#16=DIRECTION('',(0.0000,0.0000,1.0000));
#17=DIRECTION('',(1.0000,0.0000,0.0000));
#18=AXIS2_PLACEMENT_3D('',#15,#16,#17);
#19=CARTESIAN_POINT('',(-2.3000,-2.2500,0.0000));
#20=VERTEX_POINT('',#19);
#21=CARTESIAN_POINT('',(10.3000,-2.2500,0.0000));
#22=VERTEX_POINT('',#21);
#23=CARTESIAN_POINT('',(-2.3000,2.0500,0.0000));
#24=VERTEX_POINT('',#23);
#25=CARTESIAN_POINT('',(10.3000,2.0500,0.0000));
#26=VERTEX_POINT('',#25);
#27=CARTESIAN_POINT('',(-2.3000,-2.2500,4.7000));
#28=VERTEX_POINT('',#27);
#29=CARTESIAN_POINT('',(10.3000,-2.2500,4.7000));
#30=VERTEX_POINT('',#29);
#31=CARTESIAN_POINT('',(-2.3000,2.0500,4.7000));
#32=VERTEX_POINT('',#31);
#33=CARTESIAN_POINT('',(10.3000,2.0500,4.7000));
#34=VERTEX_POINT('',#33);
#35=DIRECTION('',(1.0000,0.0000,0.0000));
#36=VECTOR('',#35,12.6000);
#37=CARTESIAN_POINT('',(-2.3000,-2.2500,0.0000));
#38=LINE('',#37,#36);
#39=EDGE_CURVE('',#20,#22,#38,.T.);
#40=DIRECTION('',(0.0000,1.0000,0.0000));
#41=VECTOR('',#40,4.3000);
#42=CARTESIAN_POINT('',(-2.3000,-2.2500,0.0000));
#43=LINE('',#42,#41);
#44=EDGE_CURVE('',#20,#24,#43,.T.);
#45=DIRECTION('',(0.0000,0.0000,1.0000));
#46=VECTOR('',#45,4.7000);
#47=CARTESIAN_POINT('',(-2.3000,-2.2500,0.0000));
#48=LINE('',#47,#46);
#49=EDGE_CURVE('',#20,#28,#48,.T.);
#50=DIRECTION('',(0.0000,1.0000,0.0000));
#51=VECTOR('',#50,4.3000);
#52=CARTESIAN_POINT('',(10.3000,-2.2500,0.0000));
#53=LINE('',#52,#51);
#54=EDGE_CURVE('',#22,#26,#53,.T.);
#55=DIRECTION('',(0.0000,0.0000,1.0000));
#56=VECTOR('',#55,4.7000);
#57=CARTESIAN_POINT('',(10.3000,-2.2500,0.0000));
#58=LINE('',#57,#56);
#59=EDGE_CURVE('',#22,#30,#58,.T.);
#60=DIRECTION('',(1.0000,0.0000,0.0000));
#61=VECTOR('',#60,12.6000);
#62=CARTESIAN_POINT('',(-2.3000,2.0500,0.0000));
#63=LINE('',#62,#61);
#64=EDGE_CURVE('',#24,#26,#63,.T.);
#65=DIRECTION('',(0.0000,0.0000,1.0000));
#66=VECTOR('',#65,4.7000);
#67=CARTESIAN_POINT('',(-2.3000,2.0500,0.0000));
#68=LINE('',#67,#66);
#69=EDGE_CURVE('',#24,#32,#68,.T.);
#70=DIRECTION('',(0.0000,0.0000,1.0000));
#71=VECTOR('',#70,4.7000);
#72=CARTESIAN_POINT('',(10.3000,2.0500,0.0000));
#73=LINE('',#72,#71);
#74=EDGE_CURVE('',#26,#34,#73,.T.);
#75=DIRECTION('',(1.0000,0.0000,0.0000));
#76=VECTOR('',#75,12.6000);
#77=CARTESIAN_POINT('',(-2.3000,-2.2500,4.7000));
#78=LINE('',#77,#76);
#79=EDGE_CURVE('',#28,#30,#78,.T.);
#80=DIRECTION('',(0.0000,1.0000,0.0000));
#81=VECTOR('',#80,4.3000);
#82=CARTESIAN_POINT('',(-2.3000,-2.2500,4.7000));
#83=LINE('',#82,#81);
#84=EDGE_CURVE('',#28,#32,#83,.T.);
#85=DIRECTION('',(0.0000,1.0000,0.0000));
#86=VECTOR('',#85,4.3000);
#87=CARTESIAN_POINT('',(10.3000,-2.2500,4.7000));
#88=LINE('',#87,#86);
#89=EDGE_CURVE('',#30,#34,#88,.T.);
#90=DIRECTION('',(1.0000,0.0000,0.0000));
#91=VECTOR('',#90,12.6000);
#92=CARTESIAN_POINT('',(-2.3000,2.0500,4.7000));
#93=LINE('',#92,#91);
#94=EDGE_CURVE('',#32,#34,#93,.T.);
#95=ORIENTED_EDGE('',*,*,#84,.T.);
#96=ORIENTED_EDGE('',*,*,#69,.F.);
#97=ORIENTED_EDGE('',*,*,#44,.F.);
#98=ORIENTED_EDGE('',*,*,#49,.T.);
#99=EDGE_LOOP('',(#95,#96,#97,#98));
#100=FACE_OUTER_BOUND('',#99,.T.);
#101=CARTESIAN_POINT('',(-2.3000,-2.2500,4.7000));
#102=DIRECTION('',(-1.0000,0.0000,0.0000));
#103=DIRECTION('',(0.0000,1.0000,0.0000));
#104=AXIS2_PLACEMENT_3D('',#101,#102,#103);
#105=PLANE('',#104);
#106=ADVANCED_FACE('',(#100),#105,.T.);
#107=ORIENTED_EDGE('',*,*,#54,.T.);
#108=ORIENTED_EDGE('',*,*,#74,.T.);
#109=ORIENTED_EDGE('',*,*,#89,.F.);
#110=ORIENTED_EDGE('',*,*,#59,.F.);
#111=EDGE_LOOP('',(#107,#108,#109,#110));
#112=FACE_OUTER_BOUND('',#111,.T.);
#113=CARTESIAN_POINT('',(10.3000,-2.2500,0.0000));
#114=DIRECTION('',(1.0000,0.0000,0.0000));
#115=DIRECTION('',(0.0000,1.0000,0.0000));
#116=AXIS2_PLACEMENT_3D('',#113,#114,#115);
#117=PLANE('',#116);
#118=ADVANCED_FACE('',(#112),#117,.T.);
#119=ORIENTED_EDGE('',*,*,#39,.T.);
#120=ORIENTED_EDGE('',*,*,#59,.T.);
#121=ORIENTED_EDGE('',*,*,#79,.F.);
#122=ORIENTED_EDGE('',*,*,#49,.F.);
#123=EDGE_LOOP('',(#119,#120,#121,#122));
#124=FACE_OUTER_BOUND('',#123,.T.);
#125=CARTESIAN_POINT('',(-2.3000,-2.2500,0.0000));
#126=DIRECTION('',(0.0000,-1.0000,0.0000));
#127=DIRECTION('',(0.0000,0.0000,1.0000));
#128=AXIS2_PLACEMENT_3D('',#125,#126,#127);
#129=PLANE('',#128);
#130=ADVANCED_FACE('',(#124),#129,.T.);
#131=ORIENTED_EDGE('',*,*,#94,.T.);
#132=ORIENTED_EDGE('',*,*,#74,.F.);
#133=ORIENTED_EDGE('',*,*,#64,.F.);
#134=ORIENTED_EDGE('',*,*,#69,.T.);
#135=EDGE_LOOP('',(#131,#132,#133,#134));
#136=FACE_OUTER_BOUND('',#135,.T.);
#137=CARTESIAN_POINT('',(-2.3000,2.0500,4.7000));
#138=DIRECTION('',(0.0000,1.0000,0.0000));
#139=DIRECTION('',(0.0000,0.0000,1.0000));
#140=AXIS2_PLACEMENT_3D('',#137,#138,#139);
#141=PLANE('',#140);
#142=ADVANCED_FACE('',(#136),#141,.T.);
#143=ORIENTED_EDGE('',*,*,#64,.T.);
#144=ORIENTED_EDGE('',*,*,#54,.F.);
#145=ORIENTED_EDGE('',*,*,#39,.F.);
#146=ORIENTED_EDGE('',*,*,#44,.T.);
#147=EDGE_LOOP('',(#143,#144,#145,#146));
#148=FACE_OUTER_BOUND('',#147,.T.);
#149=CARTESIAN_POINT('',(-2.3000,2.0500,0.0000));
#150=DIRECTION('',(0.0000,0.0000,-1.0000));
#151=DIRECTION('',(1.0000,0.0000,0.0000));
#152=AXIS2_PLACEMENT_3D('',#149,#150,#151);
#153=PLANE('',#152);
#154=ADVANCED_FACE('',(#148),#153,.T.);
#155=ORIENTED_EDGE('',*,*,#79,.T.);
#156=ORIENTED_EDGE('',*,*,#89,.T.);
#157=ORIENTED_EDGE('',*,*,#94,.F.);
#158=ORIENTED_EDGE('',*,*,#84,.F.);
#159=EDGE_LOOP('',(#155,#156,#157,#158));
#160=FACE_OUTER_BOUND('',#159,.T.);
#161=CARTESIAN_POINT('',(-2.3000,-2.2500,4.7000));
#162=DIRECTION('',(0.0000,0.0000,1.0000));
#163=DIRECTION('',(1.0000,0.0000,0.0000));
#164=AXIS2_PLACEMENT_3D('',#161,#162,#163);
#165=PLANE('',#164);
#166=ADVANCED_FACE('',(#160),#165,.T.);
#167=CLOSED_SHELL('',(#106,#118,#130,#142,#154,#166));
#168=MANIFOLD_SOLID_BREP('',#167);
#169=COLOUR_RGB('',0.780,0.780,0.800);
#170=FILL_AREA_STYLE_COLOUR('',#169);
#171=FILL_AREA_STYLE('',(#170));
#172=SURFACE_STYLE_FILL_AREA(#171);
#173=SURFACE_SIDE_STYLE('',(#172));
#174=SURFACE_STYLE_USAGE(.BOTH.,#173);
#175=PRESENTATION_STYLE_ASSIGNMENT((#174));
#176=STYLED_ITEM('color',(#175),#168);
#177=CARTESIAN_POINT('',(3.0000,-6.2500,1.6000));
#178=VERTEX_POINT('',#177);
#179=CARTESIAN_POINT('',(5.0000,-6.2500,1.6000));
#180=VERTEX_POINT('',#179);
#181=CARTESIAN_POINT('',(3.0000,-2.2500,1.6000));
#182=VERTEX_POINT('',#181);
#183=CARTESIAN_POINT('',(5.0000,-2.2500,1.6000));
#184=VERTEX_POINT('',#183);
#185=CARTESIAN_POINT('',(3.0000,-6.2500,3.6000));
#186=VERTEX_POINT('',#185);
#187=CARTESIAN_POINT('',(5.0000,-6.2500,3.6000));
#188=VERTEX_POINT('',#187);
#189=CARTESIAN_POINT('',(3.0000,-2.2500,3.6000));
#190=VERTEX_POINT('',#189);
#191=CARTESIAN_POINT('',(5.0000,-2.2500,3.6000));
#192=VERTEX_POINT('',#191);
#193=DIRECTION('',(1.0000,0.0000,0.0000));
#194=VECTOR('',#193,2.0000);
#195=CARTESIAN_POINT('',(3.0000,-6.2500,1.6000));
#196=LINE('',#195,#194);
#197=EDGE_CURVE('',#178,#180,#196,.T.);
#198=DIRECTION('',(0.0000,1.0000,0.0000));
#199=VECTOR('',#198,4.0000);
#200=CARTESIAN_POINT('',(3.0000,-6.2500,1.6000));
#201=LINE('',#200,#199);
#202=EDGE_CURVE('',#178,#182,#201,.T.);
#203=DIRECTION('',(0.0000,0.0000,1.0000));
#204=VECTOR('',#203,2.0000);
#205=CARTESIAN_POINT('',(3.0000,-6.2500,1.6000));
#206=LINE('',#205,#204);
#207=EDGE_CURVE('',#178,#186,#206,.T.);
#208=DIRECTION('',(0.0000,1.0000,0.0000));
#209=VECTOR('',#208,4.0000);
#210=CARTESIAN_POINT('',(5.0000,-6.2500,1.6000));
#211=LINE('',#210,#209);
#212=EDGE_CURVE('',#180,#184,#211,.T.);
#213=DIRECTION('',(0.0000,0.0000,1.0000));
#214=VECTOR('',#213,2.0000);
#215=CARTESIAN_POINT('',(5.0000,-6.2500,1.6000));
#216=LINE('',#215,#214);
#217=EDGE_CURVE('',#180,#188,#216,.T.);
#218=DIRECTION('',(1.0000,0.0000,0.0000));
#219=VECTOR('',#218,2.0000);
#220=CARTESIAN_POINT('',(3.0000,-2.2500,1.6000));
#221=LINE('',#220,#219);
#222=EDGE_CURVE('',#182,#184,#221,.T.);
#223=DIRECTION('',(0.0000,0.0000,1.0000));
#224=VECTOR('',#223,2.0000);
#225=CARTESIAN_POINT('',(3.0000,-2.2500,1.6000));
#226=LINE('',#225,#224);
#227=EDGE_CURVE('',#182,#190,#226,.T.);
#228=DIRECTION('',(0.0000,0.0000,1.0000));
#229=VECTOR('',#228,2.0000);
#230=CARTESIAN_POINT('',(5.0000,-2.2500,1.6000));
#231=LINE('',#230,#229);
#232=EDGE_CURVE('',#184,#192,#231,.T.);
#233=DIRECTION('',(1.0000,0.0000,0.0000));
#234=VECTOR('',#233,2.0000);
#235=CARTESIAN_POINT('',(3.0000,-6.2500,3.6000));
#236=LINE('',#235,#234);
#237=EDGE_CURVE('',#186,#188,#236,.T.);
#238=DIRECTION('',(0.0000,1.0000,0.0000));
#239=VECTOR('',#238,4.0000);
#240=CARTESIAN_POINT('',(3.0000,-6.2500,3.6000));
#241=LINE('',#240,#239);
#242=EDGE_CURVE('',#186,#190,#241,.T.);
#243=DIRECTION('',(0.0000,1.0000,0.0000));
#244=VECTOR('',#243,4.0000);
#245=CARTESIAN_POINT('',(5.0000,-6.2500,3.6000));
#246=LINE('',#245,#244);
#247=EDGE_CURVE('',#188,#192,#246,.T.);
#248=DIRECTION('',(1.0000,0.0000,0.0000));
#249=VECTOR('',#248,2.0000);
#250=CARTESIAN_POINT('',(3.0000,-2.2500,3.6000));
#251=LINE('',#250,#249);
#252=EDGE_CURVE('',#190,#192,#251,.T.);
#253=ORIENTED_EDGE('',*,*,#242,.T.);
#254=ORIENTED_EDGE('',*,*,#227,.F.);
#255=ORIENTED_EDGE('',*,*,#202,.F.);
#256=ORIENTED_EDGE('',*,*,#207,.T.);
#257=EDGE_LOOP('',(#253,#254,#255,#256));
#258=FACE_OUTER_BOUND('',#257,.T.);
#259=CARTESIAN_POINT('',(3.0000,-6.2500,3.6000));
#260=DIRECTION('',(-1.0000,0.0000,0.0000));
#261=DIRECTION('',(0.0000,1.0000,0.0000));
#262=AXIS2_PLACEMENT_3D('',#259,#260,#261);
#263=PLANE('',#262);
#264=ADVANCED_FACE('',(#258),#263,.T.);
#265=ORIENTED_EDGE('',*,*,#212,.T.);
#266=ORIENTED_EDGE('',*,*,#232,.T.);
#267=ORIENTED_EDGE('',*,*,#247,.F.);
#268=ORIENTED_EDGE('',*,*,#217,.F.);
#269=EDGE_LOOP('',(#265,#266,#267,#268));
#270=FACE_OUTER_BOUND('',#269,.T.);
#271=CARTESIAN_POINT('',(5.0000,-6.2500,1.6000));
#272=DIRECTION('',(1.0000,0.0000,0.0000));
#273=DIRECTION('',(0.0000,1.0000,0.0000));
#274=AXIS2_PLACEMENT_3D('',#271,#272,#273);
#275=PLANE('',#274);
#276=ADVANCED_FACE('',(#270),#275,.T.);
#277=ORIENTED_EDGE('',*,*,#197,.T.);
#278=ORIENTED_EDGE('',*,*,#217,.T.);
#279=ORIENTED_EDGE('',*,*,#237,.F.);
#280=ORIENTED_EDGE('',*,*,#207,.F.);
#281=EDGE_LOOP('',(#277,#278,#279,#280));
#282=FACE_OUTER_BOUND('',#281,.T.);
#283=CARTESIAN_POINT('',(3.0000,-6.2500,1.6000));
#284=DIRECTION('',(0.0000,-1.0000,0.0000));
#285=DIRECTION('',(0.0000,0.0000,1.0000));
#286=AXIS2_PLACEMENT_3D('',#283,#284,#285);
#287=PLANE('',#286);
#288=ADVANCED_FACE('',(#282),#287,.T.);
#289=ORIENTED_EDGE('',*,*,#252,.T.);
#290=ORIENTED_EDGE('',*,*,#232,.F.);
#291=ORIENTED_EDGE('',*,*,#222,.F.);
#292=ORIENTED_EDGE('',*,*,#227,.T.);
#293=EDGE_LOOP('',(#289,#290,#291,#292));
#294=FACE_OUTER_BOUND('',#293,.T.);
#295=CARTESIAN_POINT('',(3.0000,-2.2500,3.6000));
#296=DIRECTION('',(0.0000,1.0000,0.0000));
#297=DIRECTION('',(0.0000,0.0000,1.0000));
#298=AXIS2_PLACEMENT_3D('',#295,#296,#297);
#299=PLANE('',#298);
#300=ADVANCED_FACE('',(#294),#299,.T.);
#301=ORIENTED_EDGE('',*,*,#222,.T.);
#302=ORIENTED_EDGE('',*,*,#212,.F.);
#303=ORIENTED_EDGE('',*,*,#197,.F.);
#304=ORIENTED_EDGE('',*,*,#202,.T.);
#305=EDGE_LOOP('',(#301,#302,#303,#304));
#306=FACE_OUTER_BOUND('',#305,.T.);
#307=CARTESIAN_POINT('',(3.0000,-2.2500,1.6000));
#308=DIRECTION('',(0.0000,0.0000,-1.0000));
#309=DIRECTION('',(1.0000,0.0000,0.0000));
#310=AXIS2_PLACEMENT_3D('',#307,#308,#309);
#311=PLANE('',#310);
#312=ADVANCED_FACE('',(#306),#311,.T.);
#313=ORIENTED_EDGE('',*,*,#237,.T.);
#314=ORIENTED_EDGE('',*,*,#247,.T.);
#315=ORIENTED_EDGE('',*,*,#252,.F.);
#316=ORIENTED_EDGE('',*,*,#242,.F.);
#317=EDGE_LOOP('',(#313,#314,#315,#316));
#318=FACE_OUTER_BOUND('',#317,.T.);
#319=CARTESIAN_POINT('',(3.0000,-6.2500,3.6000));
#320=DIRECTION('',(0.0000,0.0000,1.0000));
#321=DIRECTION('',(1.0000,0.0000,0.0000));
#322=AXIS2_PLACEMENT_3D('',#319,#320,#321);
#323=PLANE('',#322);
#324=ADVANCED_FACE('',(#318),#323,.T.);
#325=CLOSED_SHELL('',(#264,#276,#288,#300,#312,#324));
#326=MANIFOLD_SOLID_BREP('',#325);
#327=COLOUR_RGB('',0.100,0.100,0.100);
#328=FILL_AREA_STYLE_COLOUR('',#327);
#329=FILL_AREA_STYLE('',(#328));
#330=SURFACE_STYLE_FILL_AREA(#329);
#331=SURFACE_SIDE_STYLE('',(#330));
#332=SURFACE_STYLE_USAGE(.BOTH.,#331);
#333=PRESENTATION_STYLE_ASSIGNMENT((#332));
#334=STYLED_ITEM('color',(#333),#326);
#335=CARTESIAN_POINT('',(-0.2500,-0.1500,-3.8000));
#336=VERTEX_POINT('',#335);
#337=CARTESIAN_POINT('',(0.2500,-0.1500,-3.8000));
#338=VERTEX_POINT('',#337);
#339=CARTESIAN_POINT('',(-0.2500,0.1500,-3.8000));
#340=VERTEX_POINT('',#339);
#341=CARTESIAN_POINT('',(0.2500,0.1500,-3.8000));
#342=VERTEX_POINT('',#341);
#343=CARTESIAN_POINT('',(-0.2500,-0.1500,0.0000));
#344=VERTEX_POINT('',#343);
#345=CARTESIAN_POINT('',(0.2500,-0.1500,0.0000));
#346=VERTEX_POINT('',#345);
#347=CARTESIAN_POINT('',(-0.2500,0.1500,0.0000));
#348=VERTEX_POINT('',#347);
#349=CARTESIAN_POINT('',(0.2500,0.1500,0.0000));
#350=VERTEX_POINT('',#349);
#351=DIRECTION('',(1.0000,0.0000,0.0000));
#352=VECTOR('',#351,0.5000);
#353=CARTESIAN_POINT('',(-0.2500,-0.1500,-3.8000));
#354=LINE('',#353,#352);
#355=EDGE_CURVE('',#336,#338,#354,.T.);
#356=DIRECTION('',(0.0000,1.0000,0.0000));
#357=VECTOR('',#356,0.3000);
#358=CARTESIAN_POINT('',(-0.2500,-0.1500,-3.8000));
#359=LINE('',#358,#357);
#360=EDGE_CURVE('',#336,#340,#359,.T.);
#361=DIRECTION('',(0.0000,0.0000,1.0000));
#362=VECTOR('',#361,3.8000);
#363=CARTESIAN_POINT('',(-0.2500,-0.1500,-3.8000));
#364=LINE('',#363,#362);
#365=EDGE_CURVE('',#336,#344,#364,.T.);
#366=DIRECTION('',(0.0000,1.0000,0.0000));
#367=VECTOR('',#366,0.3000);
#368=CARTESIAN_POINT('',(0.2500,-0.1500,-3.8000));
#369=LINE('',#368,#367);
#370=EDGE_CURVE('',#338,#342,#369,.T.);
#371=DIRECTION('',(0.0000,0.0000,1.0000));
#372=VECTOR('',#371,3.8000);
#373=CARTESIAN_POINT('',(0.2500,-0.1500,-3.8000));
#374=LINE('',#373,#372);
#375=EDGE_CURVE('',#338,#346,#374,.T.);
#376=DIRECTION('',(1.0000,0.0000,0.0000));
#377=VECTOR('',#376,0.5000);
#378=CARTESIAN_POINT('',(-0.2500,0.1500,-3.8000));
#379=LINE('',#378,#377);
#380=EDGE_CURVE('',#340,#342,#379,.T.);
#381=DIRECTION('',(0.0000,0.0000,1.0000));
#382=VECTOR('',#381,3.8000);
#383=CARTESIAN_POINT('',(-0.2500,0.1500,-3.8000));
#384=LINE('',#383,#382);
#385=EDGE_CURVE('',#340,#348,#384,.T.);
#386=DIRECTION('',(0.0000,0.0000,1.0000));
#387=VECTOR('',#386,3.8000);
#388=CARTESIAN_POINT('',(0.2500,0.1500,-3.8000));
#389=LINE('',#388,#387);
#390=EDGE_CURVE('',#342,#350,#389,.T.);
#391=DIRECTION('',(1.0000,0.0000,0.0000));
#392=VECTOR('',#391,0.5000);
#393=CARTESIAN_POINT('',(-0.2500,-0.1500,0.0000));
#394=LINE('',#393,#392);
#395=EDGE_CURVE('',#344,#346,#394,.T.);
#396=DIRECTION('',(0.0000,1.0000,0.0000));
#397=VECTOR('',#396,0.3000);
#398=CARTESIAN_POINT('',(-0.2500,-0.1500,0.0000));
#399=LINE('',#398,#397);
#400=EDGE_CURVE('',#344,#348,#399,.T.);
#401=DIRECTION('',(0.0000,1.0000,0.0000));
#402=VECTOR('',#401,0.3000);
#403=CARTESIAN_POINT('',(0.2500,-0.1500,0.0000));
#404=LINE('',#403,#402);
#405=EDGE_CURVE('',#346,#350,#404,.T.);
#406=DIRECTION('',(1.0000,0.0000,0.0000));
#407=VECTOR('',#406,0.5000);
#408=CARTESIAN_POINT('',(-0.2500,0.1500,0.0000));
#409=LINE('',#408,#407);
#410=EDGE_CURVE('',#348,#350,#409,.T.);
#411=ORIENTED_EDGE('',*,*,#400,.T.);
#412=ORIENTED_EDGE('',*,*,#385,.F.);
#413=ORIENTED_EDGE('',*,*,#360,.F.);
#414=ORIENTED_EDGE('',*,*,#365,.T.);
#415=EDGE_LOOP('',(#411,#412,#413,#414));
#416=FACE_OUTER_BOUND('',#415,.T.);
#417=CARTESIAN_POINT('',(-0.2500,-0.1500,0.0000));
#418=DIRECTION('',(-1.0000,0.0000,0.0000));
#419=DIRECTION('',(0.0000,1.0000,0.0000));
#420=AXIS2_PLACEMENT_3D('',#417,#418,#419);
#421=PLANE('',#420);
#422=ADVANCED_FACE('',(#416),#421,.T.);
#423=ORIENTED_EDGE('',*,*,#370,.T.);
#424=ORIENTED_EDGE('',*,*,#390,.T.);
#425=ORIENTED_EDGE('',*,*,#405,.F.);
#426=ORIENTED_EDGE('',*,*,#375,.F.);
#427=EDGE_LOOP('',(#423,#424,#425,#426));
#428=FACE_OUTER_BOUND('',#427,.T.);
#429=CARTESIAN_POINT('',(0.2500,-0.1500,-3.8000));
#430=DIRECTION('',(1.0000,0.0000,0.0000));
#431=DIRECTION('',(0.0000,1.0000,0.0000));
#432=AXIS2_PLACEMENT_3D('',#429,#430,#431);
#433=PLANE('',#432);
#434=ADVANCED_FACE('',(#428),#433,.T.);
#435=ORIENTED_EDGE('',*,*,#355,.T.);
#436=ORIENTED_EDGE('',*,*,#375,.T.);
#437=ORIENTED_EDGE('',*,*,#395,.F.);
#438=ORIENTED_EDGE('',*,*,#365,.F.);
#439=EDGE_LOOP('',(#435,#436,#437,#438));
#440=FACE_OUTER_BOUND('',#439,.T.);
#441=CARTESIAN_POINT('',(-0.2500,-0.1500,-3.8000));
#442=DIRECTION('',(0.0000,-1.0000,0.0000));
#443=DIRECTION('',(0.0000,0.0000,1.0000));
#444=AXIS2_PLACEMENT_3D('',#441,#442,#443);
#445=PLANE('',#444);
#446=ADVANCED_FACE('',(#440),#445,.T.);
#447=ORIENTED_EDGE('',*,*,#410,.T.);
#448=ORIENTED_EDGE('',*,*,#390,.F.);
#449=ORIENTED_EDGE('',*,*,#380,.F.);
#450=ORIENTED_EDGE('',*,*,#385,.T.);
#451=EDGE_LOOP('',(#447,#448,#449,#450));
#452=FACE_OUTER_BOUND('',#451,.T.);
#453=CARTESIAN_POINT('',(-0.2500,0.1500,0.0000));
#454=DIRECTION('',(0.0000,1.0000,0.0000));
#455=DIRECTION('',(0.0000,0.0000,1.0000));
#456=AXIS2_PLACEMENT_3D('',#453,#454,#455);
#457=PLANE('',#456);
#458=ADVANCED_FACE('',(#452),#457,.T.);
#459=ORIENTED_EDGE('',*,*,#380,.T.);
#460=ORIENTED_EDGE('',*,*,#370,.F.);
#461=ORIENTED_EDGE('',*,*,#355,.F.);
#462=ORIENTED_EDGE('',*,*,#360,.T.);
#463=EDGE_LOOP('',(#459,#460,#461,#462));
#464=FACE_OUTER_BOUND('',#463,.T.);
#465=CARTESIAN_POINT('',(-0.2500,0.1500,-3.8000));
#466=DIRECTION('',(0.0000,0.0000,-1.0000));
#467=DIRECTION('',(1.0000,0.0000,0.0000));
#468=AXIS2_PLACEMENT_3D('',#465,#466,#467);
#469=PLANE('',#468);
#470=ADVANCED_FACE('',(#464),#469,.T.);
#471=ORIENTED_EDGE('',*,*,#395,.T.);
#472=ORIENTED_EDGE('',*,*,#405,.T.);
#473=ORIENTED_EDGE('',*,*,#410,.F.);
#474=ORIENTED_EDGE('',*,*,#400,.F.);
#475=EDGE_LOOP('',(#471,#472,#473,#474));
#476=FACE_OUTER_BOUND('',#475,.T.);
#477=CARTESIAN_POINT('',(-0.2500,-0.1500,0.0000));
#478=DIRECTION('',(0.0000,0.0000,1.0000));
#479=DIRECTION('',(1.0000,0.0000,0.0000));
#480=AXIS2_PLACEMENT_3D('',#477,#478,#479);
#481=PLANE('',#480);
#482=ADVANCED_FACE('',(#476),#481,.T.);
#483=CLOSED_SHELL('',(#422,#434,#446,#458,#470,#482));
#484=MANIFOLD_SOLID_BREP('',#483);
#485=COLOUR_RGB('',0.850,0.850,0.850);
#486=FILL_AREA_STYLE_COLOUR('',#485);
#487=FILL_AREA_STYLE('',(#486));
#488=SURFACE_STYLE_FILL_AREA(#487);
#489=SURFACE_SIDE_STYLE('',(#488));
#490=SURFACE_STYLE_USAGE(.BOTH.,#489);
#491=PRESENTATION_STYLE_ASSIGNMENT((#490));
#492=STYLED_ITEM('color',(#491),#484);
#493=CARTESIAN_POINT('',(3.7500,-0.1500,-3.8000));
#494=VERTEX_POINT('',#493);
#495=CARTESIAN_POINT('',(4.2500,-0.1500,-3.8000));
#496=VERTEX_POINT('',#495);
#497=CARTESIAN_POINT('',(3.7500,0.1500,-3.8000));
#498=VERTEX_POINT('',#497);
#499=CARTESIAN_POINT('',(4.2500,0.1500,-3.8000));
#500=VERTEX_POINT('',#499);
#501=CARTESIAN_POINT('',(3.7500,-0.1500,0.0000));
#502=VERTEX_POINT('',#501);
#503=CARTESIAN_POINT('',(4.2500,-0.1500,0.0000));
#504=VERTEX_POINT('',#503);
#505=CARTESIAN_POINT('',(3.7500,0.1500,0.0000));
#506=VERTEX_POINT('',#505);
#507=CARTESIAN_POINT('',(4.2500,0.1500,0.0000));
#508=VERTEX_POINT('',#507);
#509=DIRECTION('',(1.0000,0.0000,0.0000));
#510=VECTOR('',#509,0.5000);
#511=CARTESIAN_POINT('',(3.7500,-0.1500,-3.8000));
#512=LINE('',#511,#510);
#513=EDGE_CURVE('',#494,#496,#512,.T.);
#514=DIRECTION('',(0.0000,1.0000,0.0000));
#515=VECTOR('',#514,0.3000);
#516=CARTESIAN_POINT('',(3.7500,-0.1500,-3.8000));
#517=LINE('',#516,#515);
#518=EDGE_CURVE('',#494,#498,#517,.T.);
#519=DIRECTION('',(0.0000,0.0000,1.0000));
#520=VECTOR('',#519,3.8000);
#521=CARTESIAN_POINT('',(3.7500,-0.1500,-3.8000));
#522=LINE('',#521,#520);
#523=EDGE_CURVE('',#494,#502,#522,.T.);
#524=DIRECTION('',(0.0000,1.0000,0.0000));
#525=VECTOR('',#524,0.3000);
#526=CARTESIAN_POINT('',(4.2500,-0.1500,-3.8000));
#527=LINE('',#526,#525);
#528=EDGE_CURVE('',#496,#500,#527,.T.);
#529=DIRECTION('',(0.0000,0.0000,1.0000));
#530=VECTOR('',#529,3.8000);
#531=CARTESIAN_POINT('',(4.2500,-0.1500,-3.8000));
#532=LINE('',#531,#530);
#533=EDGE_CURVE('',#496,#504,#532,.T.);
#534=DIRECTION('',(1.0000,0.0000,0.0000));
#535=VECTOR('',#534,0.5000);
#536=CARTESIAN_POINT('',(3.7500,0.1500,-3.8000));
#537=LINE('',#536,#535);
#538=EDGE_CURVE('',#498,#500,#537,.T.);
#539=DIRECTION('',(0.0000,0.0000,1.0000));
#540=VECTOR('',#539,3.8000);
#541=CARTESIAN_POINT('',(3.7500,0.1500,-3.8000));
#542=LINE('',#541,#540);
#543=EDGE_CURVE('',#498,#506,#542,.T.);
#544=DIRECTION('',(0.0000,0.0000,1.0000));
#545=VECTOR('',#544,3.8000);
#546=CARTESIAN_POINT('',(4.2500,0.1500,-3.8000));
#547=LINE('',#546,#545);
#548=EDGE_CURVE('',#500,#508,#547,.T.);
#549=DIRECTION('',(1.0000,0.0000,0.0000));
#550=VECTOR('',#549,0.5000);
#551=CARTESIAN_POINT('',(3.7500,-0.1500,0.0000));
#552=LINE('',#551,#550);
#553=EDGE_CURVE('',#502,#504,#552,.T.);
#554=DIRECTION('',(0.0000,1.0000,0.0000));
#555=VECTOR('',#554,0.3000);
#556=CARTESIAN_POINT('',(3.7500,-0.1500,0.0000));
#557=LINE('',#556,#555);
#558=EDGE_CURVE('',#502,#506,#557,.T.);
#559=DIRECTION('',(0.0000,1.0000,0.0000));
#560=VECTOR('',#559,0.3000);
#561=CARTESIAN_POINT('',(4.2500,-0.1500,0.0000));
#562=LINE('',#561,#560);
#563=EDGE_CURVE('',#504,#508,#562,.T.);
#564=DIRECTION('',(1.0000,0.0000,0.0000));
#565=VECTOR('',#564,0.5000);
#566=CARTESIAN_POINT('',(3.7500,0.1500,0.0000));
#567=LINE('',#566,#565);
#568=EDGE_CURVE('',#506,#508,#567,.T.);
#569=ORIENTED_EDGE('',*,*,#558,.T.);
#570=ORIENTED_EDGE('',*,*,#543,.F.);
#571=ORIENTED_EDGE('',*,*,#518,.F.);
#572=ORIENTED_EDGE('',*,*,#523,.T.);
#573=EDGE_LOOP('',(#569,#570,#571,#572));
#574=FACE_OUTER_BOUND('',#573,.T.);
#575=CARTESIAN_POINT('',(3.7500,-0.1500,0.0000));
#576=DIRECTION('',(-1.0000,0.0000,0.0000));
#577=DIRECTION('',(0.0000,1.0000,0.0000));
#578=AXIS2_PLACEMENT_3D('',#575,#576,#577);
#579=PLANE('',#578);
#580=ADVANCED_FACE('',(#574),#579,.T.);
#581=ORIENTED_EDGE('',*,*,#528,.T.);
#582=ORIENTED_EDGE('',*,*,#548,.T.);
#583=ORIENTED_EDGE('',*,*,#563,.F.);
#584=ORIENTED_EDGE('',*,*,#533,.F.);
#585=EDGE_LOOP('',(#581,#582,#583,#584));
#586=FACE_OUTER_BOUND('',#585,.T.);
#587=CARTESIAN_POINT('',(4.2500,-0.1500,-3.8000));
#588=DIRECTION('',(1.0000,0.0000,0.0000));
#589=DIRECTION('',(0.0000,1.0000,0.0000));
#590=AXIS2_PLACEMENT_3D('',#587,#588,#589);
#591=PLANE('',#590);
#592=ADVANCED_FACE('',(#586),#591,.T.);
#593=ORIENTED_EDGE('',*,*,#513,.T.);
#594=ORIENTED_EDGE('',*,*,#533,.T.);
#595=ORIENTED_EDGE('',*,*,#553,.F.);
#596=ORIENTED_EDGE('',*,*,#523,.F.);
#597=EDGE_LOOP('',(#593,#594,#595,#596));
#598=FACE_OUTER_BOUND('',#597,.T.);
#599=CARTESIAN_POINT('',(3.7500,-0.1500,-3.8000));
#600=DIRECTION('',(0.0000,-1.0000,0.0000));
#601=DIRECTION('',(0.0000,0.0000,1.0000));
#602=AXIS2_PLACEMENT_3D('',#599,#600,#601);
#603=PLANE('',#602);
#604=ADVANCED_FACE('',(#598),#603,.T.);
#605=ORIENTED_EDGE('',*,*,#568,.T.);
#606=ORIENTED_EDGE('',*,*,#548,.F.);
#607=ORIENTED_EDGE('',*,*,#538,.F.);
#608=ORIENTED_EDGE('',*,*,#543,.T.);
#609=EDGE_LOOP('',(#605,#606,#607,#608));
#610=FACE_OUTER_BOUND('',#609,.T.);
#611=CARTESIAN_POINT('',(3.7500,0.1500,0.0000));
#612=DIRECTION('',(0.0000,1.0000,0.0000));
#613=DIRECTION('',(0.0000,0.0000,1.0000));
#614=AXIS2_PLACEMENT_3D('',#611,#612,#613);
#615=PLANE('',#614);
#616=ADVANCED_FACE('',(#610),#615,.T.);
#617=ORIENTED_EDGE('',*,*,#538,.T.);
#618=ORIENTED_EDGE('',*,*,#528,.F.);
#619=ORIENTED_EDGE('',*,*,#513,.F.);
#620=ORIENTED_EDGE('',*,*,#518,.T.);
#621=EDGE_LOOP('',(#617,#618,#619,#620));
#622=FACE_OUTER_BOUND('',#621,.T.);
#623=CARTESIAN_POINT('',(3.7500,0.1500,-3.8000));
#624=DIRECTION('',(0.0000,0.0000,-1.0000));
#625=DIRECTION('',(1.0000,0.0000,0.0000));
#626=AXIS2_PLACEMENT_3D('',#623,#624,#625);
#627=PLANE('',#626);
#628=ADVANCED_FACE('',(#622),#627,.T.);
#629=ORIENTED_EDGE('',*,*,#553,.T.);
#630=ORIENTED_EDGE('',*,*,#563,.T.);
#631=ORIENTED_EDGE('',*,*,#568,.F.);
#632=ORIENTED_EDGE('',*,*,#558,.F.);
#633=EDGE_LOOP('',(#629,#630,#631,#632));
#634=FACE_OUTER_BOUND('',#633,.T.);
#635=CARTESIAN_POINT('',(3.7500,-0.1500,0.0000));
#636=DIRECTION('',(0.0000,0.0000,1.0000));
#637=DIRECTION('',(1.0000,0.0000,0.0000));
#638=AXIS2_PLACEMENT_3D('',#635,#636,#637);
#639=PLANE('',#638);
#640=ADVANCED_FACE('',(#634),#639,.T.);
#641=CLOSED_SHELL('',(#580,#592,#604,#616,#628,#640));
#642=MANIFOLD_SOLID_BREP('',#641);
#643=COLOUR_RGB('',0.850,0.850,0.850);
#644=FILL_AREA_STYLE_COLOUR('',#643);
#645=FILL_AREA_STYLE('',(#644));
#646=SURFACE_STYLE_FILL_AREA(#645);
#647=SURFACE_SIDE_STYLE('',(#646));
#648=SURFACE_STYLE_USAGE(.BOTH.,#647);
#649=PRESENTATION_STYLE_ASSIGNMENT((#648));
#650=STYLED_ITEM('color',(#649),#642);
#651=CARTESIAN_POINT('',(5.7500,-0.1500,-3.8000));
#652=VERTEX_POINT('',#651);
#653=CARTESIAN_POINT('',(6.2500,-0.1500,-3.8000));
#654=VERTEX_POINT('',#653);
#655=CARTESIAN_POINT('',(5.7500,0.1500,-3.8000));
#656=VERTEX_POINT('',#655);
#657=CARTESIAN_POINT('',(6.2500,0.1500,-3.8000));
#658=VERTEX_POINT('',#657);
#659=CARTESIAN_POINT('',(5.7500,-0.1500,0.0000));
#660=VERTEX_POINT('',#659);
#661=CARTESIAN_POINT('',(6.2500,-0.1500,0.0000));
#662=VERTEX_POINT('',#661);
#663=CARTESIAN_POINT('',(5.7500,0.1500,0.0000));
#664=VERTEX_POINT('',#663);
#665=CARTESIAN_POINT('',(6.2500,0.1500,0.0000));
#666=VERTEX_POINT('',#665);
#667=DIRECTION('',(1.0000,0.0000,0.0000));
#668=VECTOR('',#667,0.5000);
#669=CARTESIAN_POINT('',(5.7500,-0.1500,-3.8000));
#670=LINE('',#669,#668);
#671=EDGE_CURVE('',#652,#654,#670,.T.);
#672=DIRECTION('',(0.0000,1.0000,0.0000));
#673=VECTOR('',#672,0.3000);
#674=CARTESIAN_POINT('',(5.7500,-0.1500,-3.8000));
#675=LINE('',#674,#673);
#676=EDGE_CURVE('',#652,#656,#675,.T.);
#677=DIRECTION('',(0.0000,0.0000,1.0000));
#678=VECTOR('',#677,3.8000);
#679=CARTESIAN_POINT('',(5.7500,-0.1500,-3.8000));
#680=LINE('',#679,#678);
#681=EDGE_CURVE('',#652,#660,#680,.T.);
#682=DIRECTION('',(0.0000,1.0000,0.0000));
#683=VECTOR('',#682,0.3000);
#684=CARTESIAN_POINT('',(6.2500,-0.1500,-3.8000));
#685=LINE('',#684,#683);
#686=EDGE_CURVE('',#654,#658,#685,.T.);
#687=DIRECTION('',(0.0000,0.0000,1.0000));
#688=VECTOR('',#687,3.8000);
#689=CARTESIAN_POINT('',(6.2500,-0.1500,-3.8000));
#690=LINE('',#689,#688);
#691=EDGE_CURVE('',#654,#662,#690,.T.);
#692=DIRECTION('',(1.0000,0.0000,0.0000));
#693=VECTOR('',#692,0.5000);
#694=CARTESIAN_POINT('',(5.7500,0.1500,-3.8000));
#695=LINE('',#694,#693);
#696=EDGE_CURVE('',#656,#658,#695,.T.);
#697=DIRECTION('',(0.0000,0.0000,1.0000));
#698=VECTOR('',#697,3.8000);
#699=CARTESIAN_POINT('',(5.7500,0.1500,-3.8000));
#700=LINE('',#699,#698);
#701=EDGE_CURVE('',#656,#664,#700,.T.);
#702=DIRECTION('',(0.0000,0.0000,1.0000));
#703=VECTOR('',#702,3.8000);
#704=CARTESIAN_POINT('',(6.2500,0.1500,-3.8000));
#705=LINE('',#704,#703);
#706=EDGE_CURVE('',#658,#666,#705,.T.);
#707=DIRECTION('',(1.0000,0.0000,0.0000));
#708=VECTOR('',#707,0.5000);
#709=CARTESIAN_POINT('',(5.7500,-0.1500,0.0000));
#710=LINE('',#709,#708);
#711=EDGE_CURVE('',#660,#662,#710,.T.);
#712=DIRECTION('',(0.0000,1.0000,0.0000));
#713=VECTOR('',#712,0.3000);
#714=CARTESIAN_POINT('',(5.7500,-0.1500,0.0000));
#715=LINE('',#714,#713);
#716=EDGE_CURVE('',#660,#664,#715,.T.);
#717=DIRECTION('',(0.0000,1.0000,0.0000));
#718=VECTOR('',#717,0.3000);
#719=CARTESIAN_POINT('',(6.2500,-0.1500,0.0000));
#720=LINE('',#719,#718);
#721=EDGE_CURVE('',#662,#666,#720,.T.);
#722=DIRECTION('',(1.0000,0.0000,0.0000));
#723=VECTOR('',#722,0.5000);
#724=CARTESIAN_POINT('',(5.7500,0.1500,0.0000));
#725=LINE('',#724,#723);
#726=EDGE_CURVE('',#664,#666,#725,.T.);
#727=ORIENTED_EDGE('',*,*,#716,.T.);
#728=ORIENTED_EDGE('',*,*,#701,.F.);
#729=ORIENTED_EDGE('',*,*,#676,.F.);
#730=ORIENTED_EDGE('',*,*,#681,.T.);
#731=EDGE_LOOP('',(#727,#728,#729,#730));
#732=FACE_OUTER_BOUND('',#731,.T.);
#733=CARTESIAN_POINT('',(5.7500,-0.1500,0.0000));
#734=DIRECTION('',(-1.0000,0.0000,0.0000));
#735=DIRECTION('',(0.0000,1.0000,0.0000));
#736=AXIS2_PLACEMENT_3D('',#733,#734,#735);
#737=PLANE('',#736);
#738=ADVANCED_FACE('',(#732),#737,.T.);
#739=ORIENTED_EDGE('',*,*,#686,.T.);
#740=ORIENTED_EDGE('',*,*,#706,.T.);
#741=ORIENTED_EDGE('',*,*,#721,.F.);
#742=ORIENTED_EDGE('',*,*,#691,.F.);
#743=EDGE_LOOP('',(#739,#740,#741,#742));
#744=FACE_OUTER_BOUND('',#743,.T.);
#745=CARTESIAN_POINT('',(6.2500,-0.1500,-3.8000));
#746=DIRECTION('',(1.0000,0.0000,0.0000));
#747=DIRECTION('',(0.0000,1.0000,0.0000));
#748=AXIS2_PLACEMENT_3D('',#745,#746,#747);
#749=PLANE('',#748);
#750=ADVANCED_FACE('',(#744),#749,.T.);
#751=ORIENTED_EDGE('',*,*,#671,.T.);
#752=ORIENTED_EDGE('',*,*,#691,.T.);
#753=ORIENTED_EDGE('',*,*,#711,.F.);
#754=ORIENTED_EDGE('',*,*,#681,.F.);
#755=EDGE_LOOP('',(#751,#752,#753,#754));
#756=FACE_OUTER_BOUND('',#755,.T.);
#757=CARTESIAN_POINT('',(5.7500,-0.1500,-3.8000));
#758=DIRECTION('',(0.0000,-1.0000,0.0000));
#759=DIRECTION('',(0.0000,0.0000,1.0000));
#760=AXIS2_PLACEMENT_3D('',#757,#758,#759);
#761=PLANE('',#760);
#762=ADVANCED_FACE('',(#756),#761,.T.);
#763=ORIENTED_EDGE('',*,*,#726,.T.);
#764=ORIENTED_EDGE('',*,*,#706,.F.);
#765=ORIENTED_EDGE('',*,*,#696,.F.);
#766=ORIENTED_EDGE('',*,*,#701,.T.);
#767=EDGE_LOOP('',(#763,#764,#765,#766));
#768=FACE_OUTER_BOUND('',#767,.T.);
#769=CARTESIAN_POINT('',(5.7500,0.1500,0.0000));
#770=DIRECTION('',(0.0000,1.0000,0.0000));
#771=DIRECTION('',(0.0000,0.0000,1.0000));
#772=AXIS2_PLACEMENT_3D('',#769,#770,#771);
#773=PLANE('',#772);
#774=ADVANCED_FACE('',(#768),#773,.T.);
#775=ORIENTED_EDGE('',*,*,#696,.T.);
#776=ORIENTED_EDGE('',*,*,#686,.F.);
#777=ORIENTED_EDGE('',*,*,#671,.F.);
#778=ORIENTED_EDGE('',*,*,#676,.T.);
#779=EDGE_LOOP('',(#775,#776,#777,#778));
#780=FACE_OUTER_BOUND('',#779,.T.);
#781=CARTESIAN_POINT('',(5.7500,0.1500,-3.8000));
#782=DIRECTION('',(0.0000,0.0000,-1.0000));
#783=DIRECTION('',(1.0000,0.0000,0.0000));
#784=AXIS2_PLACEMENT_3D('',#781,#782,#783);
#785=PLANE('',#784);
#786=ADVANCED_FACE('',(#780),#785,.T.);
#787=ORIENTED_EDGE('',*,*,#711,.T.);
#788=ORIENTED_EDGE('',*,*,#721,.T.);
#789=ORIENTED_EDGE('',*,*,#726,.F.);
#790=ORIENTED_EDGE('',*,*,#716,.F.);
#791=EDGE_LOOP('',(#787,#788,#789,#790));
#792=FACE_OUTER_BOUND('',#791,.T.);
#793=CARTESIAN_POINT('',(5.7500,-0.1500,0.0000));
#794=DIRECTION('',(0.0000,0.0000,1.0000));
#795=DIRECTION('',(1.0000,0.0000,0.0000));
#796=AXIS2_PLACEMENT_3D('',#793,#794,#795);
#797=PLANE('',#796);
#798=ADVANCED_FACE('',(#792),#797,.T.);
#799=CLOSED_SHELL('',(#738,#750,#762,#774,#786,#798));
#800=MANIFOLD_SOLID_BREP('',#799);
#801=COLOUR_RGB('',0.850,0.850,0.850);
#802=FILL_AREA_STYLE_COLOUR('',#801);
#803=FILL_AREA_STYLE('',(#802));
#804=SURFACE_STYLE_FILL_AREA(#803);
#805=SURFACE_SIDE_STYLE('',(#804));
#806=SURFACE_STYLE_USAGE(.BOTH.,#805);
#807=PRESENTATION_STYLE_ASSIGNMENT((#806));
#808=STYLED_ITEM('color',(#807),#800);
#809=CARTESIAN_POINT('',(7.7500,-0.1500,-3.8000));
#810=VERTEX_POINT('',#809);
#811=CARTESIAN_POINT('',(8.2500,-0.1500,-3.8000));
#812=VERTEX_POINT('',#811);
#813=CARTESIAN_POINT('',(7.7500,0.1500,-3.8000));
#814=VERTEX_POINT('',#813);
#815=CARTESIAN_POINT('',(8.2500,0.1500,-3.8000));
#816=VERTEX_POINT('',#815);
#817=CARTESIAN_POINT('',(7.7500,-0.1500,0.0000));
#818=VERTEX_POINT('',#817);
#819=CARTESIAN_POINT('',(8.2500,-0.1500,0.0000));
#820=VERTEX_POINT('',#819);
#821=CARTESIAN_POINT('',(7.7500,0.1500,0.0000));
#822=VERTEX_POINT('',#821);
#823=CARTESIAN_POINT('',(8.2500,0.1500,0.0000));
#824=VERTEX_POINT('',#823);
#825=DIRECTION('',(1.0000,0.0000,0.0000));
#826=VECTOR('',#825,0.5000);
#827=CARTESIAN_POINT('',(7.7500,-0.1500,-3.8000));
#828=LINE('',#827,#826);
#829=EDGE_CURVE('',#810,#812,#828,.T.);
#830=DIRECTION('',(0.0000,1.0000,0.0000));
#831=VECTOR('',#830,0.3000);
#832=CARTESIAN_POINT('',(7.7500,-0.1500,-3.8000));
#833=LINE('',#832,#831);
#834=EDGE_CURVE('',#810,#814,#833,.T.);
#835=DIRECTION('',(0.0000,0.0000,1.0000));
#836=VECTOR('',#835,3.8000);
#837=CARTESIAN_POINT('',(7.7500,-0.1500,-3.8000));
#838=LINE('',#837,#836);
#839=EDGE_CURVE('',#810,#818,#838,.T.);
#840=DIRECTION('',(0.0000,1.0000,0.0000));
#841=VECTOR('',#840,0.3000);
#842=CARTESIAN_POINT('',(8.2500,-0.1500,-3.8000));
#843=LINE('',#842,#841);
#844=EDGE_CURVE('',#812,#816,#843,.T.);
#845=DIRECTION('',(0.0000,0.0000,1.0000));
#846=VECTOR('',#845,3.8000);
#847=CARTESIAN_POINT('',(8.2500,-0.1500,-3.8000));
#848=LINE('',#847,#846);
#849=EDGE_CURVE('',#812,#820,#848,.T.);
#850=DIRECTION('',(1.0000,0.0000,0.0000));
#851=VECTOR('',#850,0.5000);
#852=CARTESIAN_POINT('',(7.7500,0.1500,-3.8000));
#853=LINE('',#852,#851);
#854=EDGE_CURVE('',#814,#816,#853,.T.);
#855=DIRECTION('',(0.0000,0.0000,1.0000));
#856=VECTOR('',#855,3.8000);
#857=CARTESIAN_POINT('',(7.7500,0.1500,-3.8000));
#858=LINE('',#857,#856);
#859=EDGE_CURVE('',#814,#822,#858,.T.);
#860=DIRECTION('',(0.0000,0.0000,1.0000));
#861=VECTOR('',#860,3.8000);
#862=CARTESIAN_POINT('',(8.2500,0.1500,-3.8000));
#863=LINE('',#862,#861);
#864=EDGE_CURVE('',#816,#824,#863,.T.);
#865=DIRECTION('',(1.0000,0.0000,0.0000));
#866=VECTOR('',#865,0.5000);
#867=CARTESIAN_POINT('',(7.7500,-0.1500,0.0000));
#868=LINE('',#867,#866);
#869=EDGE_CURVE('',#818,#820,#868,.T.);
#870=DIRECTION('',(0.0000,1.0000,0.0000));
#871=VECTOR('',#870,0.3000);
#872=CARTESIAN_POINT('',(7.7500,-0.1500,0.0000));
#873=LINE('',#872,#871);
#874=EDGE_CURVE('',#818,#822,#873,.T.);
#875=DIRECTION('',(0.0000,1.0000,0.0000));
#876=VECTOR('',#875,0.3000);
#877=CARTESIAN_POINT('',(8.2500,-0.1500,0.0000));
#878=LINE('',#877,#876);
#879=EDGE_CURVE('',#820,#824,#878,.T.);
#880=DIRECTION('',(1.0000,0.0000,0.0000));
#881=VECTOR('',#880,0.5000);
#882=CARTESIAN_POINT('',(7.7500,0.1500,0.0000));
#883=LINE('',#882,#881);
#884=EDGE_CURVE('',#822,#824,#883,.T.);
#885=ORIENTED_EDGE('',*,*,#874,.T.);
#886=ORIENTED_EDGE('',*,*,#859,.F.);
#887=ORIENTED_EDGE('',*,*,#834,.F.);
#888=ORIENTED_EDGE('',*,*,#839,.T.);
#889=EDGE_LOOP('',(#885,#886,#887,#888));
#890=FACE_OUTER_BOUND('',#889,.T.);
#891=CARTESIAN_POINT('',(7.7500,-0.1500,0.0000));
#892=DIRECTION('',(-1.0000,0.0000,0.0000));
#893=DIRECTION('',(0.0000,1.0000,0.0000));
#894=AXIS2_PLACEMENT_3D('',#891,#892,#893);
#895=PLANE('',#894);
#896=ADVANCED_FACE('',(#890),#895,.T.);
#897=ORIENTED_EDGE('',*,*,#844,.T.);
#898=ORIENTED_EDGE('',*,*,#864,.T.);
#899=ORIENTED_EDGE('',*,*,#879,.F.);
#900=ORIENTED_EDGE('',*,*,#849,.F.);
#901=EDGE_LOOP('',(#897,#898,#899,#900));
#902=FACE_OUTER_BOUND('',#901,.T.);
#903=CARTESIAN_POINT('',(8.2500,-0.1500,-3.8000));
#904=DIRECTION('',(1.0000,0.0000,0.0000));
#905=DIRECTION('',(0.0000,1.0000,0.0000));
#906=AXIS2_PLACEMENT_3D('',#903,#904,#905);
#907=PLANE('',#906);
#908=ADVANCED_FACE('',(#902),#907,.T.);
#909=ORIENTED_EDGE('',*,*,#829,.T.);
#910=ORIENTED_EDGE('',*,*,#849,.T.);
#911=ORIENTED_EDGE('',*,*,#869,.F.);
#912=ORIENTED_EDGE('',*,*,#839,.F.);
#913=EDGE_LOOP('',(#909,#910,#911,#912));
#914=FACE_OUTER_BOUND('',#913,.T.);
#915=CARTESIAN_POINT('',(7.7500,-0.1500,-3.8000));
#916=DIRECTION('',(0.0000,-1.0000,0.0000));
#917=DIRECTION('',(0.0000,0.0000,1.0000));
#918=AXIS2_PLACEMENT_3D('',#915,#916,#917);
#919=PLANE('',#918);
#920=ADVANCED_FACE('',(#914),#919,.T.);
#921=ORIENTED_EDGE('',*,*,#884,.T.);
#922=ORIENTED_EDGE('',*,*,#864,.F.);
#923=ORIENTED_EDGE('',*,*,#854,.F.);
#924=ORIENTED_EDGE('',*,*,#859,.T.);
#925=EDGE_LOOP('',(#921,#922,#923,#924));
#926=FACE_OUTER_BOUND('',#925,.T.);
#927=CARTESIAN_POINT('',(7.7500,0.1500,0.0000));
#928=DIRECTION('',(0.0000,1.0000,0.0000));
#929=DIRECTION('',(0.0000,0.0000,1.0000));
#930=AXIS2_PLACEMENT_3D('',#927,#928,#929);
#931=PLANE('',#930);
#932=ADVANCED_FACE('',(#926),#931,.T.);
#933=ORIENTED_EDGE('',*,*,#854,.T.);
#934=ORIENTED_EDGE('',*,*,#844,.F.);
#935=ORIENTED_EDGE('',*,*,#829,.F.);
#936=ORIENTED_EDGE('',*,*,#834,.T.);
#937=EDGE_LOOP('',(#933,#934,#935,#936));
#938=FACE_OUTER_BOUND('',#937,.T.);
#939=CARTESIAN_POINT('',(7.7500,0.1500,-3.8000));
#940=DIRECTION('',(0.0000,0.0000,-1.0000));
#941=DIRECTION('',(1.0000,0.0000,0.0000));
#942=AXIS2_PLACEMENT_3D('',#939,#940,#941);
#943=PLANE('',#942);
#944=ADVANCED_FACE('',(#938),#943,.T.);
#945=ORIENTED_EDGE('',*,*,#869,.T.);
#946=ORIENTED_EDGE('',*,*,#879,.T.);
#947=ORIENTED_EDGE('',*,*,#884,.F.);
#948=ORIENTED_EDGE('',*,*,#874,.F.);
#949=EDGE_LOOP('',(#945,#946,#947,#948));
#950=FACE_OUTER_BOUND('',#949,.T.);
#951=CARTESIAN_POINT('',(7.7500,-0.1500,0.0000));
#952=DIRECTION('',(0.0000,0.0000,1.0000));
#953=DIRECTION('',(1.0000,0.0000,0.0000));
#954=AXIS2_PLACEMENT_3D('',#951,#952,#953);
#955=PLANE('',#954);
#956=ADVANCED_FACE('',(#950),#955,.T.);
#957=CLOSED_SHELL('',(#896,#908,#920,#932,#944,#956));
#958=MANIFOLD_SOLID_BREP('',#957);
#959=COLOUR_RGB('',0.850,0.850,0.850);
#960=FILL_AREA_STYLE_COLOUR('',#959);
#961=FILL_AREA_STYLE('',(#960));
#962=SURFACE_STYLE_FILL_AREA(#961);
#963=SURFACE_SIDE_STYLE('',(#962));
#964=SURFACE_STYLE_USAGE(.BOTH.,#963);
#965=PRESENTATION_STYLE_ASSIGNMENT((#964));
#966=STYLED_ITEM('color',(#965),#958);
#967=CARTESIAN_POINT('',(-2.7000,-0.2000,-2.8000));
#968=VERTEX_POINT('',#967);
#969=CARTESIAN_POINT('',(-1.5000,-0.2000,-2.8000));
#970=VERTEX_POINT('',#969);
#971=CARTESIAN_POINT('',(-2.7000,0.2000,-2.8000));
#972=VERTEX_POINT('',#971);
#973=CARTESIAN_POINT('',(-1.5000,0.2000,-2.8000));
#974=VERTEX_POINT('',#973);
#975=CARTESIAN_POINT('',(-2.7000,-0.2000,0.0000));
#976=VERTEX_POINT('',#975);
#977=CARTESIAN_POINT('',(-1.5000,-0.2000,0.0000));
#978=VERTEX_POINT('',#977);
#979=CARTESIAN_POINT('',(-2.7000,0.2000,0.0000));
#980=VERTEX_POINT('',#979);
#981=CARTESIAN_POINT('',(-1.5000,0.2000,0.0000));
#982=VERTEX_POINT('',#981);
#983=DIRECTION('',(1.0000,0.0000,0.0000));
#984=VECTOR('',#983,1.2000);
#985=CARTESIAN_POINT('',(-2.7000,-0.2000,-2.8000));
#986=LINE('',#985,#984);
#987=EDGE_CURVE('',#968,#970,#986,.T.);
#988=DIRECTION('',(0.0000,1.0000,0.0000));
#989=VECTOR('',#988,0.4000);
#990=CARTESIAN_POINT('',(-2.7000,-0.2000,-2.8000));
#991=LINE('',#990,#989);
#992=EDGE_CURVE('',#968,#972,#991,.T.);
#993=DIRECTION('',(0.0000,0.0000,1.0000));
#994=VECTOR('',#993,2.8000);
#995=CARTESIAN_POINT('',(-2.7000,-0.2000,-2.8000));
#996=LINE('',#995,#994);
#997=EDGE_CURVE('',#968,#976,#996,.T.);
#998=DIRECTION('',(0.0000,1.0000,0.0000));
#999=VECTOR('',#998,0.4000);
#1000=CARTESIAN_POINT('',(-1.5000,-0.2000,-2.8000));
#1001=LINE('',#1000,#999);
#1002=EDGE_CURVE('',#970,#974,#1001,.T.);
#1003=DIRECTION('',(0.0000,0.0000,1.0000));
#1004=VECTOR('',#1003,2.8000);
#1005=CARTESIAN_POINT('',(-1.5000,-0.2000,-2.8000));
#1006=LINE('',#1005,#1004);
#1007=EDGE_CURVE('',#970,#978,#1006,.T.);
#1008=DIRECTION('',(1.0000,0.0000,0.0000));
#1009=VECTOR('',#1008,1.2000);
#1010=CARTESIAN_POINT('',(-2.7000,0.2000,-2.8000));
#1011=LINE('',#1010,#1009);
#1012=EDGE_CURVE('',#972,#974,#1011,.T.);
#1013=DIRECTION('',(0.0000,0.0000,1.0000));
#1014=VECTOR('',#1013,2.8000);
#1015=CARTESIAN_POINT('',(-2.7000,0.2000,-2.8000));
#1016=LINE('',#1015,#1014);
#1017=EDGE_CURVE('',#972,#980,#1016,.T.);
#1018=DIRECTION('',(0.0000,0.0000,1.0000));
#1019=VECTOR('',#1018,2.8000);
#1020=CARTESIAN_POINT('',(-1.5000,0.2000,-2.8000));
#1021=LINE('',#1020,#1019);
#1022=EDGE_CURVE('',#974,#982,#1021,.T.);
#1023=DIRECTION('',(1.0000,0.0000,0.0000));
#1024=VECTOR('',#1023,1.2000);
#1025=CARTESIAN_POINT('',(-2.7000,-0.2000,0.0000));
#1026=LINE('',#1025,#1024);
#1027=EDGE_CURVE('',#976,#978,#1026,.T.);
#1028=DIRECTION('',(0.0000,1.0000,0.0000));
#1029=VECTOR('',#1028,0.4000);
#1030=CARTESIAN_POINT('',(-2.7000,-0.2000,0.0000));
#1031=LINE('',#1030,#1029);
#1032=EDGE_CURVE('',#976,#980,#1031,.T.);
#1033=DIRECTION('',(0.0000,1.0000,0.0000));
#1034=VECTOR('',#1033,0.4000);
#1035=CARTESIAN_POINT('',(-1.5000,-0.2000,0.0000));
#1036=LINE('',#1035,#1034);
#1037=EDGE_CURVE('',#978,#982,#1036,.T.);
#1038=DIRECTION('',(1.0000,0.0000,0.0000));
#1039=VECTOR('',#1038,1.2000);
#1040=CARTESIAN_POINT('',(-2.7000,0.2000,0.0000));
#1041=LINE('',#1040,#1039);
#1042=EDGE_CURVE('',#980,#982,#1041,.T.);
#1043=ORIENTED_EDGE('',*,*,#1032,.T.);
#1044=ORIENTED_EDGE('',*,*,#1017,.F.);
#1045=ORIENTED_EDGE('',*,*,#992,.F.);
#1046=ORIENTED_EDGE('',*,*,#997,.T.);
#1047=EDGE_LOOP('',(#1043,#1044,#1045,#1046));
#1048=FACE_OUTER_BOUND('',#1047,.T.);
#1049=CARTESIAN_POINT('',(-2.7000,-0.2000,0.0000));
#1050=DIRECTION('',(-1.0000,0.0000,0.0000));
#1051=DIRECTION('',(0.0000,1.0000,0.0000));
#1052=AXIS2_PLACEMENT_3D('',#1049,#1050,#1051);
#1053=PLANE('',#1052);
#1054=ADVANCED_FACE('',(#1048),#1053,.T.);
#1055=ORIENTED_EDGE('',*,*,#1002,.T.);
#1056=ORIENTED_EDGE('',*,*,#1022,.T.);
#1057=ORIENTED_EDGE('',*,*,#1037,.F.);
#1058=ORIENTED_EDGE('',*,*,#1007,.F.);
#1059=EDGE_LOOP('',(#1055,#1056,#1057,#1058));
#1060=FACE_OUTER_BOUND('',#1059,.T.);
#1061=CARTESIAN_POINT('',(-1.5000,-0.2000,-2.8000));
#1062=DIRECTION('',(1.0000,0.0000,0.0000));
#1063=DIRECTION('',(0.0000,1.0000,0.0000));
#1064=AXIS2_PLACEMENT_3D('',#1061,#1062,#1063);
#1065=PLANE('',#1064);
#1066=ADVANCED_FACE('',(#1060),#1065,.T.);
#1067=ORIENTED_EDGE('',*,*,#987,.T.);
#1068=ORIENTED_EDGE('',*,*,#1007,.T.);
#1069=ORIENTED_EDGE('',*,*,#1027,.F.);
#1070=ORIENTED_EDGE('',*,*,#997,.F.);
#1071=EDGE_LOOP('',(#1067,#1068,#1069,#1070));
#1072=FACE_OUTER_BOUND('',#1071,.T.);
#1073=CARTESIAN_POINT('',(-2.7000,-0.2000,-2.8000));
#1074=DIRECTION('',(0.0000,-1.0000,0.0000));
#1075=DIRECTION('',(0.0000,0.0000,1.0000));
#1076=AXIS2_PLACEMENT_3D('',#1073,#1074,#1075);
#1077=PLANE('',#1076);
#1078=ADVANCED_FACE('',(#1072),#1077,.T.);
#1079=ORIENTED_EDGE('',*,*,#1042,.T.);
#1080=ORIENTED_EDGE('',*,*,#1022,.F.);
#1081=ORIENTED_EDGE('',*,*,#1012,.F.);
#1082=ORIENTED_EDGE('',*,*,#1017,.T.);
#1083=EDGE_LOOP('',(#1079,#1080,#1081,#1082));
#1084=FACE_OUTER_BOUND('',#1083,.T.);
#1085=CARTESIAN_POINT('',(-2.7000,0.2000,0.0000));
#1086=DIRECTION('',(0.0000,1.0000,0.0000));
#1087=DIRECTION('',(0.0000,0.0000,1.0000));
#1088=AXIS2_PLACEMENT_3D('',#1085,#1086,#1087);
#1089=PLANE('',#1088);
#1090=ADVANCED_FACE('',(#1084),#1089,.T.);
#1091=ORIENTED_EDGE('',*,*,#1012,.T.);
#1092=ORIENTED_EDGE('',*,*,#1002,.F.);
#1093=ORIENTED_EDGE('',*,*,#987,.F.);
#1094=ORIENTED_EDGE('',*,*,#992,.T.);
#1095=EDGE_LOOP('',(#1091,#1092,#1093,#1094));
#1096=FACE_OUTER_BOUND('',#1095,.T.);
#1097=CARTESIAN_POINT('',(-2.7000,0.2000,-2.8000));
#1098=DIRECTION('',(0.0000,0.0000,-1.0000));
#1099=DIRECTION('',(1.0000,0.0000,0.0000));
#1100=AXIS2_PLACEMENT_3D('',#1097,#1098,#1099);
#1101=PLANE('',#1100);
#1102=ADVANCED_FACE('',(#1096),#1101,.T.);
#1103=ORIENTED_EDGE('',*,*,#1027,.T.);
#1104=ORIENTED_EDGE('',*,*,#1037,.T.);
#1105=ORIENTED_EDGE('',*,*,#1042,.F.);
#1106=ORIENTED_EDGE('',*,*,#1032,.F.);
#1107=EDGE_LOOP('',(#1103,#1104,#1105,#1106));
#1108=FACE_OUTER_BOUND('',#1107,.T.);
#1109=CARTESIAN_POINT('',(-2.7000,-0.2000,0.0000));
#1110=DIRECTION('',(0.0000,0.0000,1.0000));
#1111=DIRECTION('',(1.0000,0.0000,0.0000));
#1112=AXIS2_PLACEMENT_3D('',#1109,#1110,#1111);
#1113=PLANE('',#1112);
#1114=ADVANCED_FACE('',(#1108),#1113,.T.);
#1115=CLOSED_SHELL('',(#1054,#1066,#1078,#1090,#1102,#1114));
#1116=MANIFOLD_SOLID_BREP('',#1115);
#1117=COLOUR_RGB('',0.780,0.780,0.800);
#1118=FILL_AREA_STYLE_COLOUR('',#1117);
#1119=FILL_AREA_STYLE('',(#1118));
#1120=SURFACE_STYLE_FILL_AREA(#1119);
#1121=SURFACE_SIDE_STYLE('',(#1120));
#1122=SURFACE_STYLE_USAGE(.BOTH.,#1121);
#1123=PRESENTATION_STYLE_ASSIGNMENT((#1122));
#1124=STYLED_ITEM('color',(#1123),#1116);
#1125=CARTESIAN_POINT('',(9.5000,-0.2000,-2.8000));
#1126=VERTEX_POINT('',#1125);
#1127=CARTESIAN_POINT('',(10.7000,-0.2000,-2.8000));
#1128=VERTEX_POINT('',#1127);
#1129=CARTESIAN_POINT('',(9.5000,0.2000,-2.8000));
#1130=VERTEX_POINT('',#1129);
#1131=CARTESIAN_POINT('',(10.7000,0.2000,-2.8000));
#1132=VERTEX_POINT('',#1131);
#1133=CARTESIAN_POINT('',(9.5000,-0.2000,0.0000));
#1134=VERTEX_POINT('',#1133);
#1135=CARTESIAN_POINT('',(10.7000,-0.2000,0.0000));
#1136=VERTEX_POINT('',#1135);
#1137=CARTESIAN_POINT('',(9.5000,0.2000,0.0000));
#1138=VERTEX_POINT('',#1137);
#1139=CARTESIAN_POINT('',(10.7000,0.2000,0.0000));
#1140=VERTEX_POINT('',#1139);
#1141=DIRECTION('',(1.0000,0.0000,0.0000));
#1142=VECTOR('',#1141,1.2000);
#1143=CARTESIAN_POINT('',(9.5000,-0.2000,-2.8000));
#1144=LINE('',#1143,#1142);
#1145=EDGE_CURVE('',#1126,#1128,#1144,.T.);
#1146=DIRECTION('',(0.0000,1.0000,0.0000));
#1147=VECTOR('',#1146,0.4000);
#1148=CARTESIAN_POINT('',(9.5000,-0.2000,-2.8000));
#1149=LINE('',#1148,#1147);
#1150=EDGE_CURVE('',#1126,#1130,#1149,.T.);
#1151=DIRECTION('',(0.0000,0.0000,1.0000));
#1152=VECTOR('',#1151,2.8000);
#1153=CARTESIAN_POINT('',(9.5000,-0.2000,-2.8000));
#1154=LINE('',#1153,#1152);
#1155=EDGE_CURVE('',#1126,#1134,#1154,.T.);
#1156=DIRECTION('',(0.0000,1.0000,0.0000));
#1157=VECTOR('',#1156,0.4000);
#1158=CARTESIAN_POINT('',(10.7000,-0.2000,-2.8000));
#1159=LINE('',#1158,#1157);
#1160=EDGE_CURVE('',#1128,#1132,#1159,.T.);
#1161=DIRECTION('',(0.0000,0.0000,1.0000));
#1162=VECTOR('',#1161,2.8000);
#1163=CARTESIAN_POINT('',(10.7000,-0.2000,-2.8000));
#1164=LINE('',#1163,#1162);
#1165=EDGE_CURVE('',#1128,#1136,#1164,.T.);
#1166=DIRECTION('',(1.0000,0.0000,0.0000));
#1167=VECTOR('',#1166,1.2000);
#1168=CARTESIAN_POINT('',(9.5000,0.2000,-2.8000));
#1169=LINE('',#1168,#1167);
#1170=EDGE_CURVE('',#1130,#1132,#1169,.T.);
#1171=DIRECTION('',(0.0000,0.0000,1.0000));
#1172=VECTOR('',#1171,2.8000);
#1173=CARTESIAN_POINT('',(9.5000,0.2000,-2.8000));
#1174=LINE('',#1173,#1172);
#1175=EDGE_CURVE('',#1130,#1138,#1174,.T.);
#1176=DIRECTION('',(0.0000,0.0000,1.0000));
#1177=VECTOR('',#1176,2.8000);
#1178=CARTESIAN_POINT('',(10.7000,0.2000,-2.8000));
#1179=LINE('',#1178,#1177);
#1180=EDGE_CURVE('',#1132,#1140,#1179,.T.);
#1181=DIRECTION('',(1.0000,0.0000,0.0000));
#1182=VECTOR('',#1181,1.2000);
#1183=CARTESIAN_POINT('',(9.5000,-0.2000,0.0000));
#1184=LINE('',#1183,#1182);
#1185=EDGE_CURVE('',#1134,#1136,#1184,.T.);
#1186=DIRECTION('',(0.0000,1.0000,0.0000));
#1187=VECTOR('',#1186,0.4000);
#1188=CARTESIAN_POINT('',(9.5000,-0.2000,0.0000));
#1189=LINE('',#1188,#1187);
#1190=EDGE_CURVE('',#1134,#1138,#1189,.T.);
#1191=DIRECTION('',(0.0000,1.0000,0.0000));
#1192=VECTOR('',#1191,0.4000);
#1193=CARTESIAN_POINT('',(10.7000,-0.2000,0.0000));
#1194=LINE('',#1193,#1192);
#1195=EDGE_CURVE('',#1136,#1140,#1194,.T.);
#1196=DIRECTION('',(1.0000,0.0000,0.0000));
#1197=VECTOR('',#1196,1.2000);
#1198=CARTESIAN_POINT('',(9.5000,0.2000,0.0000));
#1199=LINE('',#1198,#1197);
#1200=EDGE_CURVE('',#1138,#1140,#1199,.T.);
#1201=ORIENTED_EDGE('',*,*,#1190,.T.);
#1202=ORIENTED_EDGE('',*,*,#1175,.F.);
#1203=ORIENTED_EDGE('',*,*,#1150,.F.);
#1204=ORIENTED_EDGE('',*,*,#1155,.T.);
#1205=EDGE_LOOP('',(#1201,#1202,#1203,#1204));
#1206=FACE_OUTER_BOUND('',#1205,.T.);
#1207=CARTESIAN_POINT('',(9.5000,-0.2000,0.0000));
#1208=DIRECTION('',(-1.0000,0.0000,0.0000));
#1209=DIRECTION('',(0.0000,1.0000,0.0000));
#1210=AXIS2_PLACEMENT_3D('',#1207,#1208,#1209);
#1211=PLANE('',#1210);
#1212=ADVANCED_FACE('',(#1206),#1211,.T.);
#1213=ORIENTED_EDGE('',*,*,#1160,.T.);
#1214=ORIENTED_EDGE('',*,*,#1180,.T.);
#1215=ORIENTED_EDGE('',*,*,#1195,.F.);
#1216=ORIENTED_EDGE('',*,*,#1165,.F.);
#1217=EDGE_LOOP('',(#1213,#1214,#1215,#1216));
#1218=FACE_OUTER_BOUND('',#1217,.T.);
#1219=CARTESIAN_POINT('',(10.7000,-0.2000,-2.8000));
#1220=DIRECTION('',(1.0000,0.0000,0.0000));
#1221=DIRECTION('',(0.0000,1.0000,0.0000));
#1222=AXIS2_PLACEMENT_3D('',#1219,#1220,#1221);
#1223=PLANE('',#1222);
#1224=ADVANCED_FACE('',(#1218),#1223,.T.);
#1225=ORIENTED_EDGE('',*,*,#1145,.T.);
#1226=ORIENTED_EDGE('',*,*,#1165,.T.);
#1227=ORIENTED_EDGE('',*,*,#1185,.F.);
#1228=ORIENTED_EDGE('',*,*,#1155,.F.);
#1229=EDGE_LOOP('',(#1225,#1226,#1227,#1228));
#1230=FACE_OUTER_BOUND('',#1229,.T.);
#1231=CARTESIAN_POINT('',(9.5000,-0.2000,-2.8000));
#1232=DIRECTION('',(0.0000,-1.0000,0.0000));
#1233=DIRECTION('',(0.0000,0.0000,1.0000));
#1234=AXIS2_PLACEMENT_3D('',#1231,#1232,#1233);
#1235=PLANE('',#1234);
#1236=ADVANCED_FACE('',(#1230),#1235,.T.);
#1237=ORIENTED_EDGE('',*,*,#1200,.T.);
#1238=ORIENTED_EDGE('',*,*,#1180,.F.);
#1239=ORIENTED_EDGE('',*,*,#1170,.F.);
#1240=ORIENTED_EDGE('',*,*,#1175,.T.);
#1241=EDGE_LOOP('',(#1237,#1238,#1239,#1240));
#1242=FACE_OUTER_BOUND('',#1241,.T.);
#1243=CARTESIAN_POINT('',(9.5000,0.2000,0.0000));
#1244=DIRECTION('',(0.0000,1.0000,0.0000));
#1245=DIRECTION('',(0.0000,0.0000,1.0000));
#1246=AXIS2_PLACEMENT_3D('',#1243,#1244,#1245);
#1247=PLANE('',#1246);
#1248=ADVANCED_FACE('',(#1242),#1247,.T.);
#1249=ORIENTED_EDGE('',*,*,#1170,.T.);
#1250=ORIENTED_EDGE('',*,*,#1160,.F.);
#1251=ORIENTED_EDGE('',*,*,#1145,.F.);
#1252=ORIENTED_EDGE('',*,*,#1150,.T.);
#1253=EDGE_LOOP('',(#1249,#1250,#1251,#1252));
#1254=FACE_OUTER_BOUND('',#1253,.T.);
#1255=CARTESIAN_POINT('',(9.5000,0.2000,-2.8000));
#1256=DIRECTION('',(0.0000,0.0000,-1.0000));
#1257=DIRECTION('',(1.0000,0.0000,0.0000));
#1258=AXIS2_PLACEMENT_3D('',#1255,#1256,#1257);
#1259=PLANE('',#1258);
#1260=ADVANCED_FACE('',(#1254),#1259,.T.);
#1261=ORIENTED_EDGE('',*,*,#1185,.T.);
#1262=ORIENTED_EDGE('',*,*,#1195,.T.);
#1263=ORIENTED_EDGE('',*,*,#1200,.F.);
#1264=ORIENTED_EDGE('',*,*,#1190,.F.);
#1265=EDGE_LOOP('',(#1261,#1262,#1263,#1264));
#1266=FACE_OUTER_BOUND('',#1265,.T.);
#1267=CARTESIAN_POINT('',(9.5000,-0.2000,0.0000));
#1268=DIRECTION('',(0.0000,0.0000,1.0000));
#1269=DIRECTION('',(1.0000,0.0000,0.0000));
#1270=AXIS2_PLACEMENT_3D('',#1267,#1268,#1269);
#1271=PLANE('',#1270);
#1272=ADVANCED_FACE('',(#1266),#1271,.T.);
#1273=CLOSED_SHELL('',(#1212,#1224,#1236,#1248,#1260,#1272));
#1274=MANIFOLD_SOLID_BREP('',#1273);
#1275=COLOUR_RGB('',0.780,0.780,0.800);
#1276=FILL_AREA_STYLE_COLOUR('',#1275);
#1277=FILL_AREA_STYLE('',(#1276));
#1278=SURFACE_STYLE_FILL_AREA(#1277);
#1279=SURFACE_SIDE_STYLE('',(#1278));
#1280=SURFACE_STYLE_USAGE(.BOTH.,#1279);
#1281=PRESENTATION_STYLE_ASSIGNMENT((#1280));
#1282=STYLED_ITEM('color',(#1281),#1274);
#1283=ADVANCED_BREP_SHAPE_REPRESENTATION('SW_Slide_SP3T_Angled_CK_OS103011MA7Q',(#168,#326,#484,#642,#800,#958,#1116,#1274,#18),#14);
#1284=SHAPE_DEFINITION_REPRESENTATION(#9,#1283);
#1285=MECHANICAL_DESIGN_GEOMETRIC_PRESENTATION_REPRESENTATION('',(#176,#334,#492,#650,#808,#966,#1124,#1282),#14);
ENDSEC;
END-ISO-10303-21;
